<?xml version="1.0" standalone="no"?>
<!DOCTYPE svg PUBLIC "-//W3C//DTD SVG 20010904//EN"
 "http://www.w3.org/TR/2001/REC-SVG-20010904/DTD/svg10.dtd">
<svg version="1.0" xmlns="http://www.w3.org/2000/svg"
 width="20px" height="20px" viewBox="0 0 200.000000 200.000000"
 preserveAspectRatio="xMidYMid meet">

<g transform="translate(0.000000,200.000000) scale(0.100000,-0.100000)"
fill="#63C8BE" stroke="none">
<path d="M1334 1877 c-9 -24 3 -35 49 -47 69 -18 117 -42 143 -73 36 -43 20
-50 -45 -18 -132 67 -308 80 -436 31 -96 -36 -187 -142 -202 -235 -8 -50 17
-56 72 -16 134 96 236 93 293 -8 15 -26 43 -52 80 -75 68 -41 92 -78 92 -140
0 -58 -13 -59 -73 -6 -45 40 -77 51 -77 28 0 -7 9 -42 20 -76 28 -90 25 -139
-16 -266 -45 -139 -45 -217 2 -293 106 -171 331 -172 506 -2 113 111 155 247
145 474 -18 400 -222 714 -477 733 -57 4 -71 2 -76 -11z m372 -549 c7 -22 -19
-52 -40 -45 -17 6 -29 34 -23 51 10 24 54 21 63 -6z m12 -223 c4 -110 -17
-196 -62 -260 -40 -55 -91 -95 -123 -95 -38 0 -79 27 -93 60 -11 26 -10 37 5
76 21 56 53 78 124 84 68 6 76 19 93 145 11 78 14 86 32 83 19 -3 21 -11 24
-93z"/>
<path d="M439 1432 c-70 -24 -158 -82 -205 -136 -51 -58 -100 -165 -114 -248
-19 -112 -8 -312 24 -433 41 -153 112 -291 194 -374 89 -90 160 -125 256 -125
65 -1 71 1 71 19 0 15 -11 23 -45 34 -84 26 -121 45 -146 74 -36 43 -20 50 45
18 133 -67 309 -80 435 -31 73 28 147 98 181 172 48 102 25 131 -58 74 -131
-90 -230 -85 -285 13 -15 26 -43 52 -80 75 -68 41 -92 78 -92 140 0 58 13 59
73 6 45 -40 77 -51 77 -27 0 6 -9 41 -20 75 -28 90 -26 147 11 250 26 70 32
104 33 172 1 76 -2 90 -26 131 -68 116 -198 164 -329 121z m80 -197 c16 -8 34
-28 41 -45 11 -26 10 -37 -5 -76 -21 -56 -53 -78 -124 -84 -68 -6 -76 -19 -93
-145 -11 -78 -14 -86 -32 -83 -19 3 -21 11 -24 93 -5 150 40 265 128 330 39
28 69 31 109 10z m-166 -536 c15 -24 1 -49 -27 -49 -29 0 -44 33 -25 56 15 18
38 15 52 -7z"/>
<path d="M1153 1413 c-18 -7 -16 -42 2 -49 24 -10 47 14 34 37 -10 19 -15 21
-36 12z"/>
<path d="M812 627 c-9 -10 -9 -18 1 -31 17 -23 49 -11 45 18 -4 25 -30 32 -46
13z"/>
</g>
</svg>
